# xmcd
#
# Track frame offsets: 
#        183
#        15183
#        39558
#        54783
#        68283
#        87258
#        102483
#        117483
#        132258
#        146133
#        163983
#        180558
#        196308
#        209958
#        234183
#        263508
#        278133
#        300933
#
# Disc length: 4229 seconds
#
# Revision: 2
# Processed by: cddbd v1.5.1PL0 Copyright (c) Steve Scherf et al.
# Submitted via: ExactAudioCopy v0.90b4
#
DISCID=f2108312
DTITLE=Various Artist - More of Best of Dixieland
DYEAR=1989
DGENRE=Jazz
TTITLE0=Jack Teagarden With The Red Allen Band/China Boy
TTITLE1=Kenny Davern And His Salty Dogs/Over In The Gloryland
TTITLE2=Chris Barber's Jazz Band/Solitariness
TTITLE3=Alex Welsh And His Band/Shimme-Sha-Wabble
TTITLE4=Eddie Condon And His Boys/The Albatross
TTITLE5=Henry ''red'' Allen And His Orchestra/Ballin' The Jack
TTITLE6=Terry Lightfoot's Jazzmen/Yama Yama Man
TTITLE7=Monty Sunshine Quartet/The Sunshine Of Your Blues
TTITLE8=Lu Watters' Yerba Buena Jazz Band/Blues My Naughty Sweetie Giv
TTITLE8=es To Me
TTITLE9=George Lewis And His Band/Oh Didn't He Ramble
TTITLE10=Mr. Acker Bilk And His Paramount Jazz Band/Ole Miss Rag
TTITLE11=Ken Colyer's Jazzmen/St. Louis Blues
TTITLE12=The Six/Riverboat Shuffle
TTITLE13=Kid Ory's Creole Jazz Band/Come Back Sweet Papa
TTITLE14=Dejan's Olympia Brass Band/Lead Me Saviour
TTITLE15=The Sims-Wheeler Vintage Jazz Band/Ida, Sweet As Apple Cider
TTITLE16=Humphrey Lyttelton And His Band/
TTITLE17=Original Tuxedo Jass Band/The World Is Waiting For The Sunris
TTITLE17=e
EXTD=
EXTT0=
EXTT1=
EXTT2=
EXTT3=
EXTT4=
EXTT5=
EXTT6=
EXTT7=
EXTT8=
EXTT9=
EXTT10=
EXTT11=
EXTT12=
EXTT13=
EXTT14=
EXTT15=
EXTT16=
EXTT17=
PLAYORDER=
